<?xml version="1.0" encoding="UTF-8" standalone="no"?>
<!-- Generator: Adobe Illustrator 19.0.0, SVG Export Plug-In . SVG Version: 6.00 Build 0)  -->

<svg
   xmlns:dc="http://purl.org/dc/elements/1.1/"
   xmlns:cc="http://creativecommons.org/ns#"
   xmlns:rdf="http://www.w3.org/1999/02/22-rdf-syntax-ns#"
   xmlns:svg="http://www.w3.org/2000/svg"
   xmlns="http://www.w3.org/2000/svg"
   xmlns:xlink="http://www.w3.org/1999/xlink"
   xmlns:sodipodi="http://sodipodi.sourceforge.net/DTD/sodipodi-0.dtd"
   xmlns:inkscape="http://www.inkscape.org/namespaces/inkscape"
   version="1.1"
   id="Rectangle_2_copy_28_xA0_Image_1_"
   x="0px"
   y="0px"
   width="2321.2585"
   height="203.80006"
   viewBox="880 147 2321.2585 203.80006"
   xml:space="preserve"
   inkscape:version="0.48.5 r10040"
   sodipodi:docname="bg_welcome.svg"><metadata
     id="metadata50"><rdf:RDF><cc:Work
         rdf:about=""><dc:format>image/svg+xml</dc:format><dc:type
           rdf:resource="http://purl.org/dc/dcmitype/StillImage" /><dc:title></dc:title></cc:Work></rdf:RDF></metadata><defs
     id="defs48"><linearGradient
       id="linearGradient4005"
       gradientUnits="userSpaceOnUse"
       x1="1789.7001"
       y1="411.04999"
       x2="1789.7001"
       y2="207.25011"
       gradientTransform="translate(0,236)"><stop
         offset="0.2"
         style="stop-color:#64dc80;stop-opacity:1;"
         id="stop4007" /><stop
         offset="0.3161"
         style="stop-color:#41d753;stop-opacity:1;"
         id="stop4009" /><stop
         offset="0.5054"
         style="stop-color:#28c828;stop-opacity:1;"
         id="stop4011" /><stop
         offset="0.74430001"
         style="stop-color:#2a981c;stop-opacity:1;"
         id="stop4013" /><stop
         offset="1"
         style="stop-color:#228c00;stop-opacity:1;"
         id="stop4015" /></linearGradient><linearGradient
       gradientTransform="translate(0,236)"
       y2="207.25011"
       x2="1789.7001"
       y1="411.04999"
       x1="1789.7001"
       gradientUnits="userSpaceOnUse"
       id="linearGradient3989"><stop
         id="stop3991"
         style="stop-color:#3ed461;stop-opacity:1;"
         offset="0.2" /><stop
         id="stop3993"
         style="stop-color:#2ac63c;stop-opacity:1;"
         offset="0.3161" /><stop
         id="stop3995"
         style="stop-color:#1e961e;stop-opacity:1;"
         offset="0.5054" /><stop
         id="stop3997"
         style="stop-color:#217616;stop-opacity:1;"
         offset="0.74430001" /><stop
         id="stop3999"
         style="stop-color:#186400;stop-opacity:1;"
         offset="1" /></linearGradient><linearGradient
       gradientTransform="translate(0,236)"
       y2="207.25011"
       x2="1789.7001"
       y1="411.04999"
       x1="1789.7001"
       gradientUnits="userSpaceOnUse"
       id="linearGradient3977"><stop
         id="stop3987"
         style="stop-color:#32d300;stop-opacity:1;"
         offset="1" /></linearGradient><linearGradient
       inkscape:collect="always"
       xlink:href="#linearGradient3989"
       id="linearGradient3975"
       gradientUnits="userSpaceOnUse"
       gradientTransform="matrix(-1,0,0,1,3469.7999,-60.3)"
       x1="1789.7001"
       y1="411.04999"
       x2="1789.7001"
       y2="207.25011" /><linearGradient
       inkscape:collect="always"
       xlink:href="#linearGradient4005"
       id="linearGradient4003"
       gradientUnits="userSpaceOnUse"
       gradientTransform="matrix(-1,0,0,1,4190.8585,-60.29999)"
       x1="1789.7001"
       y1="411.04999"
       x2="1789.7001"
       y2="207.25011" /><linearGradient
       inkscape:collect="always"
       xlink:href="#hills_1_"
       id="linearGradient4017"
       gradientUnits="userSpaceOnUse"
       gradientTransform="translate(117.4657,235.886)"
       x1="1789.7001"
       y1="411.04999"
       x2="1789.7001"
       y2="207.25011" /></defs><sodipodi:namedview
     pagecolor="#ffffff"
     bordercolor="#666666"
     borderopacity="1"
     objecttolerance="10"
     gridtolerance="10"
     guidetolerance="10"
     inkscape:pageopacity="0"
     inkscape:pageshadow="2"
     inkscape:window-width="1323"
     inkscape:window-height="764"
     id="namedview46"
     showgrid="false"
     showborder="false"
     inkscape:showpageshadow="false"
     fit-margin-top="0"
     fit-margin-left="0"
     fit-margin-right="0"
     fit-margin-bottom="0"
     inkscape:zoom="0.35355339"
     inkscape:cx="1026.4988"
     inkscape:cy="452.8996"
     inkscape:window-x="24"
     inkscape:window-y="36"
     inkscape:window-maximized="0"
     inkscape:current-layer="Rectangle_2_copy_28_xA0_Image_1_" /><style
     type="text/css"
     id="style3">
	.st0{fill:url(#sky_1_);}
	.st1{fill:url(#hills_1_);}
	.st2{fill:#FAE43E;}
	.st3{fill:#FFFFFF;}
	.st4{opacity:0.3;fill:#FFFFFF;enable-background:new    ;}
	.st5{opacity:0.7;fill:#FFFFFF;enable-background:new    ;}
</style><linearGradient
     id="sky_1_"
     gradientUnits="userSpaceOnUse"
     x1="2065.5"
     y1="410.95001"
     x2="2065.5"
     y2="-89.050003"
     gradientTransform="translate(0,236)"><stop
       offset="0.1"
       style="stop-color:#b8ecd0;stop-opacity:1;"
       id="stop6" /><stop
       offset="0.2077"
       style="stop-color:#a7e9cd;stop-opacity:1;"
       id="stop8" /><stop
       offset="0.38319999"
       style="stop-color:#95e7cf;stop-opacity:1;"
       id="stop10" /><stop
       offset="0.6049"
       style="stop-color:#82e6d4;stop-opacity:1;"
       id="stop12" /><stop
       offset="0.86150002"
       style="stop-color:#49e3db;stop-opacity:1;"
       id="stop14" /><stop
       offset="1"
       style="stop-color:#00e2f0;stop-opacity:1;"
       id="stop16" /></linearGradient><linearGradient
     id="hills_1_"
     gradientUnits="userSpaceOnUse"
     x1="1789.7001"
     y1="411.04999"
     x2="1789.7001"
     y2="207.25011"
     gradientTransform="translate(0,236)"><stop
       offset="0.2"
       style="stop-color:#7be293;stop-opacity:1;"
       id="stop20" /><stop
       offset="0.3161"
       style="stop-color:#72e17f;stop-opacity:1;"
       id="stop22" /><stop
       offset="0.5054"
       style="stop-color:#5ade5a;stop-opacity:1;"
       id="stop24" /><stop
       offset="0.74430001"
       style="stop-color:#46d932;stop-opacity:1;"
       id="stop26" /><stop
       offset="1"
       style="stop-color:#32d300;stop-opacity:1;"
       id="stop28" /></linearGradient><path
     inkscape:connector-curvature="0"
     style="fill:url(#linearGradient4003);fill-opacity:1"
     id="path4001"
     class="st1"
     d="m 2753.8585,255.90001 c 15.6,2.3 31,4.8 45.9,7.3 6.6,-9.3 17.4,-15.4 29.7,-15.4 13.7,0 25.7,7.6 31.9,18.9 14.2,-16.6 35.4,-27.2 59,-27.2 38.1,0 69.8,27.5 76.3,63.70006 17.3,4.2 33.3,8.2 47.8,11.9 6.4,-5.7 14.9,-9.2 24.2,-9.2 12.8,0 24.1,6.7 30.6,16.7 11.1,-10.5 26,-16.9 42.5,-16.9 28.3,0 52.2,19.1 59.5,45.1 H 1601.0586 c 11.3,-12 27.3,-19.6 45.1,-19.6 10.8,0 20.9,2.8 29.8,7.6 3.2,-39.9 36.6001,-71.30006 77.3001,-71.30006 26.9,0 50.5,13.6 64.5,34.40006 4.1,-15.60006 18.2,-27.10006 35.1,-27.10006 11.8,0 22.3,5.6 28.9,14.4 17.4,-3.8 35.7,-7.5 54.8,-11.3 -0.1,-0.8 -0.1,-1.7 -0.1,-2.5 0,-20 16.3,-36.3 36.3,-36.3 7.7,0 14.8,2.4 20.7,6.5 12.3,-26.7 39.2,-45.2 70.5,-45.2 26.6,0 50.1,13.4 64,33.8 6,-11.8 18.2,-20 32.4,-20 5.4,0 10.6,1.2 15.2,3.3 -0.6,-2.6 -0.9,-5.2 -0.9,-8 0,-20 16.3,-36.2 36.3,-36.2 13.8,0 25.8,7.7 32,19 10.9,-9.5 25.1,-15.2 40.6,-15.2 30.3,0 55.5,21.8 60.8,50.7 11.3,-14.5 28.9,-23.8 48.7,-23.8 18.1,0 34.4,7.8 45.6999,20.2 0.2,-42.7 34.8,-77.2 77.6,-77.2 34.6,0 63.8999,22.6 73.8999,53.9 6.7,-7.5 16.4,-12.3 27.2,-12.3 20,0 36.3,16.2 36.3,36.3 0,2.2 -0.2,4.3 -0.6,6.4 11.1,-10.4 25.9,-16.7 42.3,-16.7 27,-0.4 50,17.1 58.4,41.3 z" /><path
     d="m 2032.7999,255.9 c 15.6,2.3 31,4.8 45.9,7.3 6.6,-9.3 17.4,-15.4 29.7,-15.4 13.7,0 25.7,7.6 31.9,18.9 14.2,-16.6 35.4,-27.2 59,-27.2 38.1,0 69.8,27.5 76.3,63.69997 17.3,4.2 33.3,8.2 47.8,11.9 6.4,-5.7 14.9,-9.2 24.2,-9.2 12.8,0 24.1,6.7 30.6,16.7 11.1,-10.5 26,-16.9 42.5,-16.9 28.3,0 52.2,19.1 59.5,45.1 H 880 c 11.29998,-12 27.29998,-19.6 45.09998,-19.6 10.8,0 20.9,2.8 29.8,7.6 3.2,-39.9 36.6,-71.29997 77.30002,-71.29997 26.9,0 50.5,13.6 64.5,34.39997 C 1100.8,286.3 1114.9,274.8 1131.8,274.8 c 11.8,0 22.3,5.6 28.9,14.4 17.4,-3.8 35.7,-7.5 54.8,-11.3 -0.1,-0.8 -0.1,-1.7 -0.1,-2.5 0,-20 16.3,-36.3 36.3,-36.3 7.7,0 14.8,2.4 20.7,6.5 12.3,-26.7 39.2,-45.2 70.5,-45.2 26.6,0 50.1,13.4 64,33.8 6,-11.8 18.2,-20 32.4,-20 5.4,0 10.6,1.2 15.2,3.3 -0.6,-2.6 -0.9,-5.2 -0.9,-8 0,-20 16.3,-36.2 36.3,-36.2 13.8,0 25.8,7.7 32,19 10.9,-9.5 25.1,-15.2 40.6,-15.2 30.3,0 55.5,21.8 60.8,50.7 11.3,-14.5 28.9,-23.8 48.7,-23.8 18.1,0 34.4,7.8 45.6999,20.2 0.2,-42.7 34.8001,-77.2 77.6001,-77.2 34.6,0 63.8999,22.6 73.8999,53.9 6.7,-7.5 16.4,-12.3 27.2,-12.3 20,0 36.3,16.2 36.3,36.3 0,2.2 -0.2,4.3 -0.6,6.4 11.1,-10.4 25.9,-16.7 42.3,-16.7 27,-0.4 50,17.1 58.4,41.3 z"
     class="st1"
     id="path3973"
     style="fill:url(#linearGradient3975);fill-opacity:1"
     inkscape:connector-curvature="0" /></svg>