<?xml version="1.0" encoding="utf-8"?>
<!-- Generator: Adobe Illustrator 19.0.0, SVG Export Plug-In . SVG Version: 6.00 Build 0)  -->
<svg version="1.1" id="Rectangle_2_copy_28_xA0_Image_1_"
	 xmlns="http://www.w3.org/2000/svg" xmlns:xlink="http://www.w3.org/1999/xlink" x="0px" y="0px" width="2371px" height="500px"
	 viewBox="880 147 2371 500" style="enable-background:new 880 147 2371 500;" xml:space="preserve">
<style type="text/css">
	.st0{fill:url(#sky_1_);}
	.st1{fill:url(#hills_1_);}
	.st2{fill:#FAE43E;}
	.st3{fill:#FFFFFF;}
	.st4{opacity:0.3;fill:#FFFFFF;enable-background:new    ;}
	.st5{opacity:0.7;fill:#FFFFFF;enable-background:new    ;}
</style>
<linearGradient id="sky_1_" gradientUnits="userSpaceOnUse" x1="2065.5" y1="410.95" x2="2065.5" y2="-89.05" gradientTransform="matrix(1 0 0 1 0 236)">
	<stop  offset="0.1" style="stop-color:#A0E6A4"/>
	<stop  offset="0.2077" style="stop-color:#97E5A4"/>
	<stop  offset="0.3832" style="stop-color:#7FE2A4"/>
	<stop  offset="0.6049" style="stop-color:#57DDA4"/>
	<stop  offset="0.8615" style="stop-color:#20D7A3"/>
	<stop  offset="1" style="stop-color:#00D3A3"/>
</linearGradient>
<rect id="sky" x="880" y="147" class="st0" width="2371" height="500"/>
<linearGradient id="hills_1_" gradientUnits="userSpaceOnUse" x1="1789.7001" y1="411.05" x2="1789.7001" y2="207.2501" gradientTransform="matrix(1 0 0 1 0 236)">
	<stop  offset="0.2" style="stop-color:#7BE2A4"/>
	<stop  offset="0.3161" style="stop-color:#72E1A4"/>
	<stop  offset="0.5054" style="stop-color:#5ADEA4"/>
	<stop  offset="0.7443" style="stop-color:#32D9A3"/>
	<stop  offset="1" style="stop-color:#00D3A3"/>
</linearGradient>
<path id="hills" class="st1" d="M1437,552.2c-15.6,2.3-31,4.8-45.9,7.3c-6.6-9.3-17.4-15.4-29.7-15.4c-13.7,0-25.7,7.6-31.9,18.9
	c-14.2-16.6-35.4-27.2-59-27.2c-38.1,0-69.8,27.5-76.3,63.7c-17.3,4.2-33.3,8.2-47.8,11.9c-6.4-5.7-14.9-9.2-24.2-9.2
	c-12.8,0-24.1,6.7-30.6,16.7c-11.1-10.5-26-16.9-42.5-16.9c-28.3,0-52.2,19.1-59.5,45.1h1600.2c-11.3-12-27.3-19.6-45.1-19.6
	c-10.8,0-20.9,2.8-29.8,7.6c-3.2-39.9-36.6-71.3-77.3-71.3c-26.9,0-50.5,13.6-64.5,34.4c-4.1-15.6-18.2-27.1-35.1-27.1
	c-11.8,0-22.3,5.6-28.9,14.4c-17.4-3.8-35.7-7.5-54.8-11.3c0.1-0.8,0.1-1.7,0.1-2.5c0-20-16.3-36.3-36.3-36.3
	c-7.7,0-14.8,2.4-20.7,6.5c-12.3-26.7-39.2-45.2-70.5-45.2c-26.6,0-50.1,13.4-64,33.8c-6-11.8-18.2-20-32.4-20
	c-5.4,0-10.6,1.2-15.2,3.3c0.6-2.6,0.9-5.2,0.9-8c0-20-16.3-36.2-36.3-36.2c-13.8,0-25.8,7.7-32,19c-10.9-9.5-25.1-15.2-40.6-15.2
	c-30.3,0-55.5,21.8-60.8,50.7c-11.3-14.5-28.9-23.8-48.7-23.8c-18.1,0-34.4,7.8-45.7,20.2c-0.2-42.7-34.8-77.2-77.6-77.2
	c-34.6,0-63.9,22.6-73.9,53.9c-6.7-7.5-16.4-12.3-27.2-12.3c-20,0-36.3,16.2-36.3,36.3c0,2.2,0.2,4.3,0.6,6.4
	c-11.1-10.4-25.9-16.7-42.3-16.7C1468.4,510.5,1445.4,528,1437,552.2z"/>
<circle id="sun" class="st2" cx="1826" cy="353" r="36"/>
<path class="st3" d="M1971,366.9c-6-10.6-23.7-34.7-59.9-34.7c-24,0-39.9,10.6-49.6,20.9c-4.4-2-9.7-3.3-15.9-3.3
	c-17.8,0-27.6,10.5-32,17c-1.4,2.2,0.1,5,2.7,5h151.8C1970.7,371.7,1972.2,369,1971,366.9z"/>
<path class="st3" d="M1411.4,418.2c-8.3-14.7-32.9-48.3-83.2-48.3c-33.3,0-55.3,14.7-68.8,29c-6.1-2.7-13.4-4.5-22.1-4.5
	c-24.8,0-38.4,14.5-44.4,23.5c-2,3,0.2,7,3.8,7h210.8C1410.9,425,1413.1,421.2,1411.4,418.2z"/>
<path class="st4" d="M1151.7,248.9c-3.7-6.7-14.7-21.9-37.1-21.9c-14.8,0-24.7,6.7-30.7,13.2c-2.7-1.2-6-2.1-9.9-2.1
	c-11,0-17.1,6.6-19.8,10.7c-0.9,1.4,0.1,3.2,1.7,3.2h94.1C1151.5,252,1152.5,250.2,1151.7,248.9z"/>
<path class="st5" d="M2588.7,249.2c-4.7-8.3-18.4-27.2-46.5-27.2c-18.6,0-30.9,8.3-38.5,16.3c-3.4-1.5-7.5-2.6-12.4-2.6
	c-13.9,0-21.5,8.2-24.8,13.3c-1.1,1.7,0.1,3.9,2.1,3.9h117.9C2588.4,253,2589.6,250.9,2588.7,249.2z"/>
<path class="st5" d="M1690.7,332.2c-4.7-8.3-18.4-27.2-46.5-27.2c-18.6,0-30.9,8.3-38.5,16.3c-3.4-1.5-7.5-2.6-12.4-2.6
	c-13.9,0-21.5,8.2-24.8,13.3c-1.1,1.7,0.1,3.9,2.1,3.9h117.9C1690.4,336,1691.6,333.9,1690.7,332.2z"/>
<path class="st4" d="M3013.7,387.9c-3.7-6.7-14.7-21.9-37.1-21.9c-14.8,0-24.6,6.7-30.7,13.2c-2.7-1.2-6-2.1-9.9-2.1
	c-11,0-17.1,6.6-19.8,10.7c-0.9,1.4,0.1,3.2,1.7,3.2h93.9C3013.5,391,3014.5,389.2,3013.7,387.9z"/>
<path class="st5" d="M2774.4,464.2c-8.3-14.7-32.9-48.3-83.2-48.3c-33.3,0-55.3,14.7-68.8,29c-6.1-2.7-13.4-4.5-22.1-4.5
	c-24.8,0-38.4,14.5-44.4,23.5c-2,3,0.2,7,3.8,7h210.8C2773.9,471,2776.1,467.2,2774.4,464.2z"/>
</svg>
